HIERARCHY
ROOT joint_Root
{
	OFFSET 0.0 0.0 0.0
	CHANNELS 6 Xposition Yposition Zposition Zrotation Xrotation Yrotation 
	JOINT Hips
	{
		OFFSET -17.1583 93.1646 452.98
		CHANNELS 6 Xposition Yposition Zposition Zrotation Xrotation Yrotation 
		JOINT Spine
		{
			OFFSET 15.7357 0.0 0.0
			CHANNELS 6 Xposition Yposition Zposition Zrotation Xrotation Yrotation 
			JOINT Chest
			{
				OFFSET 8.98455 -0.406207 0.0
				CHANNELS 6 Xposition Yposition Zposition Zrotation Xrotation Yrotation 
				JOINT Neck
				{
					OFFSET 16.3773 0.0 0.0
					CHANNELS 6 Xposition Yposition Zposition Zrotation Xrotation Yrotation 
					JOINT Head
					{
						OFFSET 6.45672 0.0 0.0
						CHANNELS 6 Xposition Yposition Zposition Zrotation Xrotation Yrotation 
						End Site
						{
							OFFSET 0.0 0.0 0.0
						}
					}
				}
				JOINT Shoulder_L
				{
					OFFSET 12.9942 -0.242716 4.98039
					CHANNELS 6 Xposition Yposition Zposition Zrotation Xrotation Yrotation 
					JOINT UpperArm_L
					{
						OFFSET 5.34809 0.0 0.0
						CHANNELS 6 Xposition Yposition Zposition Zrotation Xrotation Yrotation 
						JOINT LowerArm_L
						{
							OFFSET 24.3286 1.87007e-05 0.0
							CHANNELS 6 Xposition Yposition Zposition Zrotation Xrotation Yrotation 
							JOINT Hand_L
							{
								OFFSET 22.2916 0.0 0.0
								CHANNELS 6 Xposition Yposition Zposition Zrotation Xrotation Yrotation 
								End Site
								{
									OFFSET 0.0 0.0 0.0
								}
							}
						}
					}
				}
				JOINT Shoulder_R
				{
					OFFSET 12.9945 -0.242716 -4.98039
					CHANNELS 6 Xposition Yposition Zposition Zrotation Xrotation Yrotation 
					JOINT UpperArm_R
					{
						OFFSET -5.34813 0.0 0.0
						CHANNELS 6 Xposition Yposition Zposition Zrotation Xrotation Yrotation 
						JOINT LowerArm_R
						{
							OFFSET -24.3289 0.000322201 0.0
							CHANNELS 6 Xposition Yposition Zposition Zrotation Xrotation Yrotation 
							JOINT Hand_R
							{
								OFFSET -22.2915 -0.000108084 0.0
								CHANNELS 6 Xposition Yposition Zposition Zrotation Xrotation Yrotation 
								End Site
								{
									OFFSET 0.0 0.0 0.0
								}
							}
						}
					}
				}
			}
		}
		JOINT UpperLeg_L
		{
			OFFSET -2.19248 -6.46944 0.0
			CHANNELS 6 Xposition Yposition Zposition Zrotation Xrotation Yrotation 
			JOINT LowerLeg_L
			{
				OFFSET 39.0811 0.0 -1.23785e-05
				CHANNELS 6 Xposition Yposition Zposition Zrotation Xrotation Yrotation 
				JOINT Foot_L
				{
					OFFSET 40.9854 0.0 -1.26872e-05
					CHANNELS 6 Xposition Yposition Zposition Zrotation Xrotation Yrotation 
					JOINT Toes_L
					{
						OFFSET 11.7543 0.0 0.0
						CHANNELS 6 Xposition Yposition Zposition Zrotation Xrotation Yrotation 
						End Site
						{
							OFFSET 0.0 0.0 0.0
						}
					}
				}
			}
		}
		JOINT UpperLeg_R
		{
			OFFSET -2.19251 6.46944 0.0
			CHANNELS 6 Xposition Yposition Zposition Zrotation Xrotation Yrotation 
			JOINT LowerLeg_R
			{
				OFFSET -39.0811 -0.00228153 -0.0401928
				CHANNELS 6 Xposition Yposition Zposition Zrotation Xrotation Yrotation 
				JOINT Foot_R
				{
					OFFSET -40.9854 0.0 0.0
					CHANNELS 6 Xposition Yposition Zposition Zrotation Xrotation Yrotation 
					JOINT Toes_R
					{
						OFFSET -11.7543 0.0 0.0
						CHANNELS 6 Xposition Yposition Zposition Zrotation Xrotation Yrotation 
						End Site
						{
							OFFSET 0.0 0.0 0.0
						}
					}
				}
			}
		}
	}
}
MOTION
Frames:	5
Frame Time:	0.0333333
0.000000 0.000000 0.000000 0.000000 0.000000 -0.000000 1.422900 92.724600 1.977770 89.734800 5.917010 3.817360 15.735700 0.000005 -0.000001 55.576800 87.110200 -48.444600 8.984550 -0.406207 -0.000000 -2.717000 -3.916630 14.177600 16.377300 -0.000001 -0.000001 2.053480 1.678780 6.719410 6.456720 -0.000001 -0.000000 -13.713800 -6.347810 25.090600 12.994200 -0.242716 4.980390 -87.072300 -5.527300 -62.032900 5.348090 -0.000007 -0.000001 -60.744000 -56.637600 -111.907000 24.328600 0.000019 0.000005 0.216689 17.134800 -0.735271 22.291600 -0.000001 0.000005 38.536800 4.618900 14.588200 12.994500 -0.242716 -4.980390 88.346900 4.157350 -68.292700 -5.348130 -0.000001 -0.000004 -61.606500 8.066250 -7.992160 -24.328900 0.000322 -0.000009 2.045130 7.475560 -15.355500 -22.291500 -0.000108 -0.000004 5.591210 5.241340 1.660660 -2.192480 -6.469440 -0.000000 -175.266000 -7.722750 2.093950 39.081100 -0.000007 -0.000012 0.028395 -0.094099 16.791600 40.985400 -0.000006 -0.000013 1.919450 19.348200 -70.119700 11.754300 -0.000000 0.000003 -0.001196 0.185779 -9.040480 -2.192510 6.469440 -0.000001 173.327000 11.363400 -174.044000 -39.081100 -0.002282 -0.040193 0.009341 -0.026084 12.970500 -40.985400 0.000008 0.000006 -7.451600 4.462380 -69.195900 -11.754300 -0.000006 -0.000006 -0.010906 0.277953 -5.279010
0.000000 0.000000 0.000000 0.000000 0.000000 -0.000000 1.405360 92.714600 2.020140 89.723600 5.949170 3.824520 15.735700 0.000005 -0.000001 55.986700 87.098400 -48.905600 8.984550 -0.406207 -0.000000 -2.678220 -3.888610 14.077000 16.377300 -0.000001 -0.000001 2.257910 1.727180 6.562250 6.456720 -0.000001 -0.000000 -13.567200 -6.113580 24.743300 12.994200 -0.242716 4.980390 -87.123700 -5.421160 -61.995200 5.348090 -0.000007 -0.000001 -60.600400 -56.573100 -111.553000 24.328600 0.000019 0.000005 0.204517 17.232300 -0.690155 22.291600 -0.000001 0.000005 38.654800 4.612760 14.694700 12.994500 -0.242716 -4.980390 88.333400 4.170740 -68.195600 -5.348130 -0.000001 -0.000004 -61.386000 8.083550 -7.932040 -24.328900 0.000322 -0.000009 2.038860 7.507870 -15.248200 -22.291500 -0.000108 -0.000004 5.726480 5.241200 1.664250 -2.192480 -6.469440 -0.000000 -175.227000 -7.738450 2.096140 39.081100 -0.000007 -0.000012 0.027873 -0.092032 16.849700 40.985400 -0.000006 -0.000013 1.935730 19.434100 -70.187300 11.754300 -0.000000 0.000003 -0.001230 0.186252 -9.021270 -2.192510 6.469440 -0.000001 173.330000 11.460900 -174.011000 -39.081100 -0.002282 -0.040193 0.009214 -0.025456 13.007100 -40.985400 0.000008 0.000006 -7.452240 4.534960 -69.225200 -11.754300 -0.000006 -0.000006 -0.010720 0.276607 -5.334060
0.000000 0.000000 0.000000 0.000000 0.000000 -0.000000 1.383670 92.713900 2.068510 89.733800 5.925790 3.736250 15.735700 0.000005 -0.000001 56.269700 87.109300 -49.258500 8.984550 -0.406207 -0.000000 -2.686030 -3.846870 13.938000 16.377300 -0.000001 -0.000001 2.528440 1.839380 6.418050 6.456720 -0.000001 -0.000000 -13.550900 -5.943720 24.472800 12.994200 -0.242716 4.980390 -87.138500 -5.373600 -61.909300 5.348090 -0.000007 -0.000001 -60.750900 -56.588100 -111.449000 24.328600 0.000019 0.000005 0.172813 17.231800 -0.583164 22.291600 -0.000001 0.000005 38.345000 4.606300 14.806100 12.994500 -0.242716 -4.980390 88.332300 4.162330 -68.142400 -5.348130 -0.000001 -0.000004 -61.302300 8.010790 -7.778760 -24.328900 0.000322 -0.000009 2.050670 7.595740 -15.164200 -22.291500 -0.000108 -0.000004 5.744120 5.238800 1.726800 -2.192480 -6.469440 -0.000000 -175.233000 -7.693640 2.080310 39.081100 -0.000007 -0.000012 0.027565 -0.091433 16.776800 40.985400 -0.000006 -0.000013 1.890230 19.348800 -70.181100 11.754300 -0.000000 0.000003 -0.001153 0.185187 -9.064550 -2.192510 6.469440 -0.000001 173.360000 11.427700 -174.056000 -39.081100 -0.002282 -0.040193 0.009808 -0.028104 12.972300 -40.985400 0.000008 0.000006 -7.381510 4.498560 -69.269400 -11.754300 -0.000006 -0.000006 -0.010951 0.278279 -5.265650
0.000000 0.000000 0.000000 0.000000 0.000000 -0.000000 1.354410 92.707100 2.134230 89.690800 5.882720 3.721810 15.735700 0.000005 -0.000001 56.890300 87.121100 -49.937900 8.984550 -0.406207 -0.000000 -2.678200 -3.775910 13.821800 16.377300 -0.000001 -0.000001 2.701060 1.911310 6.289750 6.456720 -0.000001 -0.000000 -13.396600 -5.813340 24.278100 12.994200 -0.242716 4.980390 -87.152200 -5.337740 -61.865100 5.348090 -0.000007 -0.000001 -60.941300 -56.623300 -111.418000 24.328600 0.000019 0.000005 0.154770 17.158300 -0.524443 22.291600 -0.000001 0.000005 38.180200 4.598070 14.947900 12.994500 -0.242716 -4.980390 88.332300 4.153050 -68.098800 -5.348130 -0.000001 -0.000004 -61.281200 7.853860 -7.444250 -24.328900 0.000322 -0.000009 2.052830 7.604680 -15.162400 -22.291500 -0.000108 -0.000004 5.699610 5.237930 1.749660 -2.192480 -6.469440 -0.000000 -175.176000 -7.681320 2.102360 39.081100 -0.000007 -0.000012 0.028508 -0.094390 16.805600 40.985400 -0.000006 -0.000013 1.884770 19.314400 -70.274800 11.754300 -0.000000 0.000003 -0.001317 0.187441 -8.972940 -2.192510 6.469440 -0.000001 173.416000 11.454800 -174.013000 -39.081100 -0.002282 -0.040193 0.009351 -0.026217 12.925400 -40.985400 0.000008 0.000006 -7.338730 4.542620 -69.287400 -11.754300 -0.000006 -0.000006 -0.011064 0.279089 -5.232490
0.000000 0.000000 0.000000 0.000000 0.000000 -0.000000 1.331060 92.698900 2.198120 89.659400 5.857470 3.677320 15.735700 0.000005 -0.000001 57.454000 87.127900 -50.569200 8.984550 -0.406207 -0.000000 -2.665590 -3.714120 13.688300 16.377300 -0.000001 -0.000001 2.848870 1.967430 6.202760 6.456720 -0.000001 -0.000000 -13.337400 -5.709680 24.118500 12.994200 -0.242716 4.980390 -87.170400 -5.291840 -61.812600 5.348090 -0.000007 -0.000001 -60.994300 -56.755300 -111.318000 24.328600 0.000019 0.000005 0.144082 17.062200 -0.490877 22.291600 -0.000001 0.000005 38.308400 4.589860 15.088500 12.994500 -0.242716 -4.980390 88.332200 4.146290 -68.065600 -5.348130 -0.000001 -0.000004 -61.294600 7.775490 -7.150180 -24.328900 0.000322 -0.000009 2.055350 7.682450 -15.034400 -22.291500 -0.000108 -0.000004 5.649230 5.238470 1.735630 -2.192480 -6.469440 -0.000000 -175.144000 -7.605750 2.076530 39.081100 -0.000007 -0.000012 0.029548 -0.097633 16.838300 40.985400 -0.000006 -0.000013 1.849720 19.175100 -70.308800 11.754300 -0.000000 0.000003 -0.001419 0.188825 -8.916660 -2.192510 6.469440 -0.000001 173.462000 11.497200 -174.019000 -39.081100 -0.002282 -0.040193 0.009322 -0.026123 12.910200 -40.985400 0.000008 0.000006 -7.292310 4.612500 -69.292600 -11.754300 -0.000006 -0.000006 -0.011012 0.278715 -5.247810
